<svg xmlns="http://www.w3.org/2000/svg" width="150" height="74" viewBox="0 0 150 74" fill="none">
  <g filter="url(#filter0_d_167_1314)">
    <path d="M43.7903 54.6699V66.8732C43.7903 67.3838 43.3713 67.8065 42.8649 67.8065H22.1753C20.9881 67.8065 20.0103 66.8379 20.0103 65.6229V56.2019C20.0103 55.0044 20.9706 54.0183 22.1753 54.0183H43.1617C43.5109 54.0183 43.7903 54.3001 43.7903 54.6522V54.6699Z" fill="#382BC1"/>
    <path d="M14.109 4.99365H25.8069C26.2609 4.99365 26.6275 5.36345 26.6275 5.82129V64.5134C26.6275 66.3448 25.1609 67.824 23.3451 67.824H16.2565C14.4407 67.824 12.9741 66.3448 12.9741 64.5134V6.15587C12.9741 5.50432 13.4979 4.99365 14.1265 4.99365H14.109Z" fill="#382BC1"/>
    <path d="M54.1089 61.0972L43.7379 67.7007C43.5633 67.8064 43.3538 67.7007 43.3538 67.4894V54.2648C43.3538 54.0711 43.5633 53.9478 43.7379 54.0534L54.1089 60.657C54.266 60.7626 54.266 60.9915 54.1089 61.0796V61.0972Z" fill="white"/>
    <path d="M54.5804 60.9739L48.2077 64.9008C48.1204 64.9536 47.9807 64.9008 47.9807 64.7775V56.9061C47.9807 56.8005 48.1029 56.73 48.2077 56.7829L54.5804 60.7098C54.6677 60.7626 54.6677 60.9035 54.5804 60.9563V60.9739Z" fill="#231F20"/>
    <path d="M41.2937 55.6031L43.5285 57.1351V54.071L41.2937 55.5855V55.6031Z" fill="white"/>
    <path d="M41.2063 58.2093L43.4411 59.7413V56.6772L41.2063 58.1917V58.2093Z" fill="white"/>
    <path d="M41.2063 60.7803L43.4411 62.3123V59.2483L41.2063 60.7803Z" fill="white"/>
    <path d="M41.2063 63.2808L43.4411 64.8128V64.7952V61.7488V61.7312L41.2063 63.2632V63.2808Z" fill="white"/>
    <path d="M41.2063 66.1863L43.4411 67.7184V67.7008V64.6543V64.6367L41.2063 66.1687V66.1863Z" fill="white"/>
    <path d="M89.1322 30.8885C89.1277 30.8839 89.1287 30.8763 89.1342 30.8731L91.6549 29.3827C92.0914 29.1362 92.6327 29.4355 92.6327 29.9462L92.6327 67.3486C92.6327 67.7007 92.9295 68.0001 93.2787 68.0001L99.8784 68.0001C100.228 68.0001 100.524 67.7183 100.524 67.3486L100.524 16.2989C100.524 15.8059 99.9832 15.4889 99.5641 15.7354L81.8252 25.9313C81.3887 26.1778 81.3887 26.8117 81.8252 27.0583L88.4948 30.8971C88.7005 31.0182 88.94 31.0203 89.1305 30.9036C89.1358 30.9003 89.1366 30.8929 89.1322 30.8885ZM56.4564 68.0001L63.0562 68.0001C63.4054 68.0001 63.7022 67.7183 63.7022 67.3485L63.7022 29.9286C63.7022 29.4355 64.2434 29.1186 64.6624 29.3651L89.036 43.3293C89.4725 43.5759 89.9963 43.2589 89.9963 42.7658L89.9963 35.141C89.9963 34.9121 89.8741 34.7007 89.6646 34.5775L56.7707 15.7178C56.3342 15.4713 55.8104 15.7882 55.8104 16.2813L55.8104 67.3485C55.8104 67.7007 56.1072 68.0001 56.4564 68.0001ZM68.2591 67.9913C68.2591 67.9962 68.2631 68.0001 68.2679 68.0001L74.8588 68.0001C75.208 68.0001 75.5048 67.7183 75.5048 67.3486L75.5048 38.9798C75.5048 38.7509 75.3826 38.5396 75.1731 38.4163L68.5734 34.6303C68.1369 34.3838 67.6131 34.7007 67.6131 35.1938L67.6131 67.3309C67.6131 67.6802 67.9049 67.9774 68.2503 67.9824C68.2551 67.9825 68.2591 67.9864 68.2591 67.9913Z" fill="#382BC1"/>
    <path d="M19.8533 7.79338C23.6246 8.216 26.68 9.58953 26.6626 10.8574L26.5927 17.6194C26.5927 16.3515 23.5548 14.978 19.7835 14.5554C16.0122 14.1328 12.9393 14.8195 12.9219 16.0874L12.9917 9.32539C12.9917 8.05752 16.0821 7.37075 19.8533 7.79338Z" fill="#110E0D"/>
    <path fill-rule="evenodd" clip-rule="evenodd" d="M7.47442 9.44873C7.33474 9.44873 7.19507 9.60722 7.19507 9.78331V33.0453C7.19507 33.2214 7.31729 33.3799 7.47442 33.3799C7.6141 33.3799 7.75377 33.2214 7.75377 33.0453V9.78331C7.75377 9.58961 7.63156 9.44873 7.47442 9.44873Z" fill="#292425"/>
    <path fill-rule="evenodd" clip-rule="evenodd" d="M7.47442 32.4995C6.98555 32.4995 6.58398 32.8693 6.58398 33.3095C6.58398 33.468 6.63636 33.5913 6.7062 33.7146V39.0854C6.7062 39.1911 6.77604 39.2791 6.86334 39.2791C6.86334 39.2791 7.02047 39.1911 7.02047 39.0854V34.0139C7.02047 34.0139 7.09031 34.0491 7.12523 34.0667V39.103C7.12523 39.2087 7.19507 39.2967 7.28237 39.2967C7.28237 39.2967 7.4395 39.2087 7.4395 39.103V34.1372H7.49188C7.49188 34.1372 7.5268 34.1372 7.54426 34.1372V39.1206C7.54426 39.2263 7.6141 39.3143 7.7014 39.3143C7.7014 39.3143 7.85853 39.2263 7.85853 39.1206V34.0667C7.85853 34.0667 7.92837 34.0491 7.96329 34.0139V39.1206C7.96329 39.2263 8.03313 39.3143 8.12043 39.3143C8.12043 39.3143 8.27756 39.2263 8.27756 39.1206V33.7146C8.3474 33.5913 8.39978 33.4504 8.39978 33.3095C8.39978 32.8693 7.99821 32.4995 7.50934 32.4995H7.47442Z" fill="#231F20"/>
    <path d="M19.1375 2L36.824 5.97972L21.704 13.3933L4 9.41355L19.1375 2Z" fill="#110E0D"/>
    <path d="M145.144 57.8746H141.041C140.535 57.8746 140.186 57.3111 140.326 56.7652C140.36 56.6243 140.395 56.4658 140.413 56.325C140.483 55.8143 140.518 55.2156 140.518 54.4936C140.518 53.1553 140.151 52.0107 139.418 51.1126C138.684 50.2145 137.776 49.739 136.676 49.739H114.189C112.477 49.739 110.906 49.2108 109.492 48.1718C108.078 47.1329 106.943 45.7241 106.105 43.9808C105.267 42.2198 104.848 40.2828 104.848 38.1697C104.848 37.4653 104.848 36.8842 104.9 36.4087C104.917 36.127 104.952 35.8276 105.005 35.4931C105.075 35.088 105.371 34.7887 105.738 34.7887H109.824C110.33 34.7887 110.679 35.3522 110.539 35.8981C110.505 36.0389 110.47 36.1974 110.452 36.3383C110.382 36.849 110.347 37.4477 110.347 38.1697C110.347 39.5256 110.714 40.6526 111.465 41.5683C112.216 42.484 113.123 42.9418 114.206 42.9418H136.694C138.405 42.9418 139.976 43.4701 141.373 44.5091C142.787 45.548 143.905 46.9392 144.743 48.7001C145.581 50.4434 146 52.3805 146 54.5112C146 55.2156 146 55.8143 145.965 56.2897C145.965 56.5715 145.913 56.8709 145.878 57.1878C145.825 57.5928 145.511 57.8922 145.144 57.8922V57.8746ZM134.127 66.7321H112.635C112.355 66.7321 112.111 66.3623 112.111 65.8869V60.7801C112.111 60.3223 112.338 59.9349 112.635 59.9349H139.173C139.575 59.9349 139.819 60.6217 139.627 61.1852C139.121 62.6467 138.457 63.8618 137.654 64.8479C136.607 66.0982 135.437 66.7321 134.127 66.7321ZM139.173 32.7284H112.635C112.233 32.7284 111.989 32.0416 112.181 31.4781C112.687 30.0165 113.35 28.8015 114.154 27.8154C115.201 26.5651 116.371 25.9312 117.68 25.9312H139.173C139.453 25.9312 139.697 26.3009 139.697 26.7764V31.8831C139.697 32.341 139.47 32.7284 139.173 32.7284Z" fill="#382BC1"/>
  </g>
  <defs>
    <filter id="filter0_d_167_1314" x="0" y="0" width="150" height="74" filterUnits="userSpaceOnUse" color-interpolation-filters="sRGB">
      <feFlood flood-opacity="0" result="BackgroundImageFix"/>
      <feColorMatrix in="SourceAlpha" type="matrix" values="0 0 0 0 0 0 0 0 0 0 0 0 0 0 0 0 0 0 127 0" result="hardAlpha"/>
      <feOffset dy="2"/>
      <feGaussianBlur stdDeviation="2"/>
      <feComposite in2="hardAlpha" operator="out"/>
      <feColorMatrix type="matrix" values="0 0 0 0 1 0 0 0 0 1 0 0 0 0 1 0 0 0 1 0"/>
      <feBlend mode="normal" in2="BackgroundImageFix" result="effect1_dropShadow_167_1314"/>
      <feBlend mode="normal" in="SourceGraphic" in2="effect1_dropShadow_167_1314" result="shape"/>
    </filter>
  </defs>
</svg>